#!OML:ASF F:\VICON\USERDATA\INSTALL\rory3\rory3.ASF
:FULLY-SPECIFIED
:DEGREES
504
root 2.84293 16.7326 -0.148349 15.2434 4.82684 11.5586
lowerback -6.98813 1.68992 -0.091768
upperback -2.09497 2.45739 -7.2968
thorax 2.0704 1.24851 -7.375
lowerneck -3.23742 14.6955 5.06013
upperneck 48.0605 24.4359 -1.26199
head 20.5162 10.6231 2.7564
rclavicle 1.5207e-014 2.06736e-014
rhumerus -36.766 3.12739 -92.8404
rradius 42.6762
rwrist -38.2132
rhand -8.05497 -49.4433
rfingers 7.12502
rthumb 17.8559 -78.6436
lclavicle 1.5207e-014 2.06736e-014
lhumerus -27.6099 -20.0283 82.1048
lradius 41.1989
lwrist 73.8937
lhand -38.1064 -14.2037
lfingers 7.12502
lthumb -11.1419 15.4805
rfemur -51.5449 24.0168 -6.91458
rtibia 74.3863
rfoot 3.72914 9.80532
rtoes -40.8958
lfemur -32.5356 -6.548 -36.5133
ltibia 38.3929
lfoot -16.6904 10.3618
ltoes 5.2096
505
root 2.8403 16.7292 -0.154629 15.2341 4.87056 11.5857
lowerback -6.89423 1.67907 -0.119324
upperback -2.08446 2.44161 -7.30195
thorax 2.02601 1.24003 -7.36797
lowerneck -3.07643 14.6685 5.15334
upperneck 47.8381 24.4145 -1.46581
head 20.3843 10.6296 2.61352
rclavicle 2.28105e-014 -2.38542e-015
rhumerus -36.7166 3.19836 -92.8749
rradius 42.6135
rwrist -38.2989
rhand -8.17535 -49.5686
rfingers 7.12502
rthumb 17.7401 -78.7794
lclavicle 2.28105e-014 -2.38542e-015
lhumerus -27.5503 -20.1552 82.1054
lradius 41.1673
lwrist 73.9861
lhand -38.0846 -14.0295
lfingers 7.12502
lthumb -11.1208 15.6558
rfemur -51.5839 23.9617 -6.92669
rtibia 74.4302
rfoot 3.74166 9.80868
rtoes -40.9555
lfemur -32.5365 -6.57406 -36.5304
ltibia 38.3157
lfoot -16.5383 10.397
ltoes 4.98344
506
root 2.83778 16.7231 -0.159126 15.1961 4.85748 11.6432
lowerback -6.79254 1.68502 -0.175218
upperback -2.06661 2.45092 -7.32726
thorax 1.98785 1.24444 -7.36407
lowerneck -3.26766 14.6765 5.07855
upperneck 47.9984 24.4017 -1.29577
head 20.4891 10.6111 2.73124
rclavicle -3.37934e-015 1.19271e-014
rhumerus -36.6309 3.20653 -92.9055
rradius 42.4704
rwrist -38.2686
rhand -7.95372 -49.9631
rfingers 7.12502
rthumb 17.9534 -79.1544
lclavicle -3.37934e-015 1.19271e-014
lhumerus -27.4899 -20.2694 82.1105
lradius 41.1049
lwrist 73.9465
lhand -38.1511 -14.0544
lfingers 7.12502
lthumb -11.185 15.6275
rfemur -51.5751 23.9543 -6.96377
rtibia 74.4644
rfoot 3.6358 9.83815
rtoes -41.2303
lfemur -32.5074 -6.53722 -36.6038
ltibia 38.2835
lfoot -16.4976 10.4545
ltoes 4.92272
507
root 2.83925 16.7235 -0.156242 15.1869 4.78887 11.7486
lowerback -6.82578 1.68633 -0.278091
upperback -2.0301 2.46389 -7.34698
thorax 2.04271 1.25211 -7.32339
lowerneck -3.48388 14.6926 4.91593
upperneck 48.1543 24.4196 -1.13304
head 20.5841 10.5886 2.86408
rclavicle -2.54941e-014 5.64548e-014
rhumerus -36.5758 3.2827 -92.9073
rradius 42.4509
rwrist -38.2431
rhand -7.71164 -50.3128
rfingers 7.12502
rthumb 18.1863 -79.4826
lclavicle -2.54941e-014 5.64548e-014
lhumerus -27.4293 -20.201 82.1091
lradius 41.0575
lwrist 73.8671
lhand -38.0635 -13.9062
lfingers 7.12502
lthumb -11.1005 15.7802
rfemur -51.5475 23.9725 -7.09979
rtibia 74.4648
rfoot 3.57698 9.90757
rtoes -41.3717
lfemur -32.4553 -6.50292 -36.7366
ltibia 38.2818
lfoot -16.5449 10.4435
ltoes 5.03029
508
root 2.83701 16.725 -0.158186 15.2175 4.76546 11.6968
lowerback -6.79563 1.67253 -0.272024
upperback -2.04347 2.44111 -7.29874
thorax 2.00719 1.23955 -7.27749
lowerneck -3.57088 14.7221 4.78348
upperneck 48.2174 24.4816 -1.07671
head 20.615 10.5893 2.9312
rclavicle 3.0911e-014 -5.12864e-014
rhumerus -36.5773 3.42776 -92.9082
rradius 42.4827
rwrist -38.2964
rhand -7.59121 -50.3838
rfingers 7.12502
rthumb 18.3021 -79.5428
lclavicle 3.0911e-014 -5.12864e-014
lhumerus -27.4453 -20.0591 82.0998
lradius 41.1024
lwrist 73.8446
lhand -37.9555 -13.5282
lfingers 7.12502
lthumb -10.9963 16.1638
rfemur -51.6457 24.0107 -7.08994
rtibia 74.4596
rfoot 3.64765 9.94252
rtoes -41.3724
lfemur -32.5384 -6.48565 -36.6569
ltibia 38.3074
lfoot -16.5867 10.3406
ltoes 5.24761
509
root 2.83533 16.7249 -0.16049 15.2305 4.82275 11.6243
lowerback -6.74336 1.65527 -0.214124
upperback -2.06324 2.40936 -7.25938
thorax 1.95407 1.22242 -7.27271
lowerneck -3.59503 14.7333 4.72739
upperneck 48.257 24.4956 -1.02555
head 20.6254 10.5886 2.9687
rclavicle -7.7526e-015 -1.98785e-015
rhumerus -36.5953 3.43377 -92.8911
rradius 42.4956
rwrist -38.3373
rhand -7.40065 -50.5189
rfingers 7.12502
rthumb 18.4855 -79.6606
lclavicle -7.7526e-015 -1.98785e-015
lhumerus -27.4787 -20.0016 82.0985
lradius 41.1316
lwrist 73.8225
lhand -37.8562 -13.8451
lfingers 7.12502
lthumb -10.9006 15.852
rfemur -51.6707 23.9995 -7.00642
rtibia 74.4449
rfoot 3.69826 10.0263
rtoes -41.377
lfemur -32.6046 -6.50124 -36.5634
ltibia 38.3453
lfoot -16.5844 10.3432
ltoes 4.9638
510
root 2.83947 16.725 -0.153858 15.206 4.84309 11.6605
lowerback -6.80342 1.64422 -0.230643
upperback -2.05239 2.39864 -7.24957
thorax 1.99644 1.21768 -7.2521
lowerneck -3.42602 14.7319 4.79607
upperneck 48.1293 24.5157 -1.16872
head 20.5416 10.6096 2.86989
rclavicle 5.96354e-015 3.97569e-014
rhumerus -36.6168 3.46636 -92.8647
rradius 42.476
rwrist -38.3689
rhand -7.26698 -50.622
rfingers 7.12502
rthumb 18.614 -79.7514
lclavicle 5.96354e-015 3.97569e-014
lhumerus -27.5612 -19.8745 82.11
lradius 41.2145
lwrist 73.8277
lhand -38.0776 -14.0824
lfingers 7.12502
lthumb -11.1141 15.6033
rfemur -51.5406 23.968 -7.01676
rtibia 74.4099
rfoot 3.533 10.2107
rtoes -41.8598
lfemur -32.5315 -6.55783 -36.6238
ltibia 38.3724
lfoot -16.6083 10.4401
ltoes 4.64885
511
root 2.83997 16.7234 -0.150136 15.1705 4.7926 11.633
lowerback -6.77975 1.66178 -0.230476
upperback -2.08484 2.41817 -7.22202
thorax 1.95074 1.22614 -7.22134
lowerneck -3.0712 14.7102 4.98138
upperneck 47.8709 24.5443 -1.50561
head 20.3929 10.6482 2.64242
rclavicle 3.45885e-014 -1.35174e-014
rhumerus -36.6691 3.53943 -92.8569
rradius 42.4227
rwrist -38.3864
rhand -7.25173 -50.6096
rfingers 7.12502
rthumb 18.6287 -79.7376
lclavicle 3.45885e-014 -1.35174e-014
lhumerus -27.7046 -19.8093 82.1633
lradius 41.2738
lwrist 73.8403
lhand -38.286 -14.0999
lfingers 7.12502
lthumb -11.3151 15.5749
rfemur -51.4963 24.0301 -6.99365
rtibia 74.3748
rfoot 3.4553 10.2499
rtoes -42.0916
lfemur -32.5029 -6.52581 -36.6101
ltibia 38.3754
lfoot -16.6151 10.4872
ltoes 4.66056
512
root 2.83809 16.7241 -0.150901 15.1503 4.75378 11.6334
lowerback -6.71302 1.66735 -0.256724
upperback -2.11369 2.42245 -7.21837
thorax 1.8828 1.22672 -7.20351
lowerneck -2.8627 14.698 5.11005
upperneck 47.7242 24.5592 -1.70209
head 20.3136 10.6724 2.50814
rclavicle 1.23246e-014 2.54444e-014
rhumerus -36.6917 3.54887 -92.8723
rradius 42.3865
rwrist -38.3894
rhand -7.26702 -50.7213
rfingers 7.12502
rthumb 18.614 -79.8507
lclavicle 1.23246e-014 2.54444e-014
lhumerus -27.7691 -19.8485 82.1988
lradius 41.2155
lwrist 73.8496
lhand -38.2558 -14.3812
lfingers 7.12502
lthumb -11.286 15.2952
rfemur -51.5083 24.0722 -7.0062
rtibia 74.3487
rfoot 3.48396 10.2611
rtoes -42.0995
lfemur -32.5247 -6.46795 -36.6134
ltibia 38.36
lfoot -16.5683 10.493
ltoes 4.74739
513
root 2.8383 16.7273 -0.146366 15.1298 4.74687 11.5827
lowerback -6.78838 1.66839 -0.22318
upperback -2.08137 2.42624 -7.19621
thorax 1.95934 1.2302 -7.19665
lowerneck -3.01895 14.7344 5.06165
upperneck 47.8721 24.6021 -1.5678
head 20.419 10.6774 2.61235
rclavicle 2.70347e-014 -1.70955e-014
rhumerus -36.6906 3.57166 -92.8932
rradius 42.3932
rwrist -38.4126
rhand -7.44626 -50.6577
rfingers 7.12502
rthumb 18.4416 -79.8035
lclavicle 2.70347e-014 -1.70955e-014
lhumerus -27.764 -19.8207 82.1765
lradius 41.2105
lwrist 73.9075
lhand -38.1586 -14.5204
lfingers 7.12502
lthumb -11.1923 15.1611
rfemur -51.4535 24.0944 -6.93117
rtibia 74.3223
rfoot 3.83091 9.9063
rtoes -41.1289
lfemur -32.5133 -6.45184 -36.5611
ltibia 38.3599
lfoot -16.5336 10.4744
ltoes 5.0137
514
root 2.83878 16.7254 -0.142748 15.0965 4.75036 11.451
lowerback -6.81333 1.68657 -0.0903288
upperback -2.08112 2.44152 -7.15266
thorax 1.97894 1.23837 -7.22459
lowerneck -3.16999 14.7567 4.98994
upperneck 48.0641 24.624 -1.40042
head 20.5406 10.6728 2.73343
rclavicle -9.0447e-015 2.70347e-014
rhumerus -36.7397 3.59715 -92.9063
rradius 42.3956
rwrist -38.4609
rhand -7.65856 -50.4695
rfingers 7.12502
rthumb 18.2374 -79.6346
lclavicle -9.0447e-015 2.70347e-014
lhumerus -27.8249 -19.8112 82.1728
lradius 41.255
lwrist 73.9356
lhand -38.1213 -14.2697
lfingers 7.12502
lthumb -11.1562 15.4137
rfemur -51.3842 24.1454 -6.76689
rtibia 74.3129
rfoot 4.56081 9.09722
rtoes -38.4004
lfemur -32.4705 -6.42149 -36.4326
ltibia 38.3734
lfoot -16.5783 10.4935
ltoes 5.14416
515
root 2.83943 16.7226 -0.14329 15.0745 4.74953 11.4498
lowerback -6.72552 1.69493 -0.0575775
upperback -2.12539 2.44446 -7.15936
thorax 1.88589 1.23786 -7.25299
lowerneck -3.15531 14.7598 4.95503
upperneck 48.0691 24.6156 -1.35442
head 20.5187 10.6718 2.75375
rclavicle -1.24737e-014 3.77691e-014
rhumerus -36.8914 3.53014 -92.9089
rradius 42.4861
rwrist -38.4405
rhand -7.70272 -50.2846
rfingers 7.12502
rthumb 18.1949 -79.4536
lclavicle -1.24737e-014 3.77691e-014
lhumerus -27.912 -19.851 82.1916
lradius 41.2797
lwrist 73.9384
lhand -38.3704 -13.6758
lfingers 7.12502
lthumb -11.3965 15.9945
rfemur -51.347 24.1519 -6.76658
rtibia 74.3184
rfoot 4.96471 8.72518
rtoes -36.5423
lfemur -32.4567 -6.42505 -36.4385
ltibia 38.4084
lfoot -16.6257 10.545
ltoes 4.91797
516
root 2.84003 16.7231 -0.142922 15.0738 4.73959 11.4807
lowerback -6.70536 1.70172 -0.0769749
upperback -2.14291 2.45337 -7.17367
thorax 1.85739 1.24167 -7.25706
lowerneck -3.10465 14.7464 4.96757
upperneck 48.0031 24.5936 -1.39486
head 20.4686 10.6687 2.71807
rclavicle 1.3418e-014 -1.15295e-014
rhumerus -36.9607 3.45921 -92.902
rradius 42.5407
rwrist -38.3811
rhand -7.67461 -50.1458
rfingers 7.12502
rthumb 18.2219 -79.3123
lclavicle 1.3418e-014 -1.15295e-014
lhumerus -27.9313 -19.8648 82.1931
lradius 41.292
lwrist 73.9427
lhand -38.3094 -13.5842
lfingers 7.12502
lthumb -11.3377 16.0893
rfemur -51.3462 24.1532 -6.81438
rtibia 74.3151
rfoot 4.99825 8.75031
rtoes -36.3054
lfemur -32.5109 -6.478 -36.4584
ltibia 38.4722
lfoot -16.585 10.5875
ltoes 4.66746
517
root 2.83846 16.7233 -0.145326 15.0771 4.69293 11.3985
lowerback -6.69137 1.72304 -0.0251551
upperback -2.14716 2.477 -7.14934
thorax 1.84922 1.25337 -7.25898
lowerneck -2.91717 14.6967 5.09504
upperneck 47.7808 24.555 -1.65349
head 20.3526 10.6679 2.5421
rclavicle 3.98563e-014 1.23246e-014
rhumerus -36.8994 3.44103 -92.8981
rradius 42.4866
rwrist -38.3378
rhand -7.67109 -50.1256
rfingers 7.12502
rthumb 18.2253 -79.2917
lclavicle 3.98563e-014 1.23246e-014
lhumerus -27.9116 -19.8584 82.1755
lradius 41.3055
lwrist 73.9051
lhand -38.0379 -13.7329
lfingers 7.12502
lthumb -11.0758 15.9549
rfemur -51.4523 24.2254 -6.77155
rtibia 74.312
rfoot 4.62503 9.22956
rtoes -38.2571
lfemur -32.6104 -6.48076 -36.3549
ltibia 38.5299
lfoot -16.5096 10.6319
ltoes 4.5489
518
root 2.83625 16.7257 -0.148348 15.0783 4.64477 11.2985
lowerback -6.65904 1.7525 0.0430395
upperback -2.17043 2.50871 -7.12688
thorax 1.81286 1.26843 -7.27236
lowerneck -2.44914 14.6136 5.3266
upperneck 47.2721 24.4624 -2.11428
head 20.0284 10.6748 2.1996
rclavicle -2.70347e-014 1.74931e-014
rhumerus -36.8506 3.48464 -92.9188
rradius 42.4011
rwrist -38.3841
rhand -7.80475 -49.9359
rfingers 7.12502
rthumb 18.0967 -79.114
lclavicle -2.70347e-014 1.74931e-014
lhumerus -27.9253 -19.8303 82.1602
lradius 41.2933
lwrist 73.7674
lhand -37.8742 -13.9658
lfingers 7.12502
lthumb -10.9179 15.7303
rfemur -51.5594 24.3049 -6.70139
rtibia 74.3013
rfoot 4.09112 9.80532
rtoes -40.6372
lfemur -32.7173 -6.47755 -36.2162
ltibia 38.565
lfoot -16.5363 10.5432
ltoes 5.39221
